STARTFONT 2.1
FONT -sni-sfac16-medium-r-normal--17-160-75-75-c-80--
SIZE 16 75 75
FONTBOUNDINGBOX 8 16 0 -3

STARTPROPERTIES 10
X_HEIGHT 10
COPYRIGHT "Copyright (C) Siemens Nixdorf Informationssysteme AG 1992, All Rights Reserved"
POINT_SIZE 160
WEIGHT 10
RESOLUTION_X 75
RESOLUTION_Y 75
QUAD_WIDTH 8
DEFAULT_CHAR 0
FONT_DESCENT 3
FONT_ASCENT 13
ENDPROPERTIES

CHARS 254

STARTCHAR C0
ENCODING 0
SWIDTH 714 0
DWIDTH 8 0
BBX 8 16 0 -3
BITMAP
00
00
00
04
00
00
00
00
00
00
00
00
00
00
00
00
ENDCHAR

STARTCHAR C1
ENCODING 1
SWIDTH 714 0
DWIDTH 8 0
BBX 8 16 0 -3
BITMAP
00
01
7F
41
20
10
00
00
3E
41
49
41
3E
00
00
00
ENDCHAR

STARTCHAR C2
ENCODING 2
SWIDTH 714 0
DWIDTH 8 0
BBX 8 16 0 -3
BITMAP
00
31
49
45
43
21
00
00
3E
41
49
41
3E
00
00
00
ENDCHAR

STARTCHAR C3
ENCODING 3
SWIDTH 714 0
DWIDTH 8 0
BBX 8 16 0 -3
BITMAP
00
36
49
49
41
22
00
00
3E
41
49
41
3E
00
00
00
ENDCHAR

STARTCHAR C4
ENCODING 4
SWIDTH 714 0
DWIDTH 8 0
BBX 8 16 0 -3
BITMAP
00
04
7F
44
24
1C
00
00
3E
41
49
41
3E
00
00
00
ENDCHAR

STARTCHAR C5
ENCODING 5
SWIDTH 714 0
DWIDTH 8 0
BBX 8 16 0 -3
BITMAP
00
46
49
49
49
79
00
00
3E
41
49
41
3E
00
00
00
ENDCHAR

STARTCHAR C6
ENCODING 6
SWIDTH 714 0
DWIDTH 8 0
BBX 8 16 0 -3
BITMAP
00
46
49
49
29
1E
00
00
3E
41
49
41
3E
00
00
00
ENDCHAR

STARTCHAR C7
ENCODING 7
SWIDTH 714 0
DWIDTH 8 0
BBX 8 16 0 -3
BITMAP
00
70
48
44
42
41
00
00
3E
41
49
41
3E
00
00
00
ENDCHAR

STARTCHAR C10
ENCODING 8
SWIDTH 714 0
DWIDTH 8 0
BBX 8 16 0 -3
BITMAP
00
3F
44
44
44
3F
00
00
3E
41
49
41
3E
00
00
00
ENDCHAR

STARTCHAR C11
ENCODING 11
SWIDTH 714 0
DWIDTH 8 0
BBX 8 16 0 -3
BITMAP
00
36
49
49
49
7F
00
00
3E
41
49
41
3E
00
00
00
ENDCHAR

STARTCHAR C12
ENCODING 12
SWIDTH 714 0
DWIDTH 8 0
BBX 8 16 0 -3
BITMAP
00
22
41
41
41
3E
00
00
3E
41
49
41
3E
00
00
00
ENDCHAR

STARTCHAR C13
ENCODING 13
SWIDTH 714 0
DWIDTH 8 0
BBX 8 16 0 -3
BITMAP
00
3E
41
41
41
7F
00
00
3E
41
49
41
3E
00
00
00
ENDCHAR

STARTCHAR C14
ENCODING 14
SWIDTH 714 0
DWIDTH 8 0
BBX 8 16 0 -3
BITMAP
00
41
49
49
49
7F
00
00
3E
41
49
41
3E
00
00
00
ENDCHAR

STARTCHAR C15
ENCODING 15
SWIDTH 714 0
DWIDTH 8 0
BBX 8 16 0 -3
BITMAP
00
40
48
48
48
7F
00
00
3E
41
49
41
3E
00
00
00
ENDCHAR

STARTCHAR C16
ENCODING 16
SWIDTH 714 0
DWIDTH 8 0
BBX 8 16 0 -3
BITMAP
00
3E
41
49
41
3E
00
00
01
7F
41
20
10
00
00
00
ENDCHAR

STARTCHAR C17
ENCODING 17
SWIDTH 714 0
DWIDTH 8 0
BBX 8 16 0 -3
BITMAP
00
01
7F
41
20
10
00
00
01
7F
41
20
10
00
00
00
ENDCHAR

STARTCHAR C18
ENCODING 18
SWIDTH 714 0
DWIDTH 8 0
BBX 8 16 0 -3
BITMAP
00
31
49
45
43
21
00
00
01
7F
41
20
10
00
00
00
ENDCHAR

STARTCHAR C19
ENCODING 19
SWIDTH 714 0
DWIDTH 8 0
BBX 8 16 0 -3
BITMAP
00
36
49
49
41
22
00
00
01
7F
41
20
10
00
00
00
ENDCHAR

STARTCHAR C20
ENCODING 20
SWIDTH 714 0
DWIDTH 8 0
BBX 8 16 0 -3
BITMAP
00
04
7F
44
24
1C
00
00
01
7F
41
20
10
00
00
00
ENDCHAR

STARTCHAR C21
ENCODING 21
SWIDTH 714 0
DWIDTH 8 0
BBX 8 16 0 -3
BITMAP
00
46
49
49
49
79
00
00
01
7F
41
20
10
00
00
00
ENDCHAR

STARTCHAR C22
ENCODING 22
SWIDTH 714 0
DWIDTH 8 0
BBX 8 16 0 -3
BITMAP
00
46
49
49
29
1E
00
00
01
7F
41
20
10
00
00
00
ENDCHAR

STARTCHAR C23
ENCODING 23
SWIDTH 714 0
DWIDTH 8 0
BBX 8 16 0 -3
BITMAP
00
70
48
44
42
41
00
00
01
7F
41
20
10
00
00
00
ENDCHAR

STARTCHAR C24
ENCODING 24
SWIDTH 714 0
DWIDTH 8 0
BBX 8 16 0 -3
BITMAP
00
36
49
49
49
36
00
00
01
7F
41
20
10
00
00
00
ENDCHAR

STARTCHAR C25
ENCODING 25
SWIDTH 714 0
DWIDTH 8 0
BBX 8 16 0 -3
BITMAP
00
3E
49
49
49
31
00
00
01
7F
41
20
10
00
00
00
ENDCHAR

STARTCHAR C26
ENCODING 26
SWIDTH 714 0
DWIDTH 8 0
BBX 8 16 0 -3
BITMAP
00
3F
44
44
44
3F
00
00
01
7F
41
20
10
00
00
00
ENDCHAR

STARTCHAR C27
ENCODING 27
SWIDTH 714 0
DWIDTH 8 0
BBX 8 16 0 -3
BITMAP
00
36
49
49
49
7F
00
00
01
7F
41
20
10
00
00
00
ENDCHAR

STARTCHAR C28
ENCODING 28
SWIDTH 714 0
DWIDTH 8 0
BBX 8 16 0 -3
BITMAP
00
22
41
41
41
3E
00
00
01
7F
41
20
10
00
00
00
ENDCHAR

STARTCHAR C29
ENCODING 29
SWIDTH 714 0
DWIDTH 8 0
BBX 8 16 0 -3
BITMAP
00
3E
41
41
41
7F
00
00
01
7F
41
20
10
00
00
00
ENDCHAR

STARTCHAR C30
ENCODING 30
SWIDTH 714 0
DWIDTH 8 0
BBX 8 16 0 -3
BITMAP
00
41
49
49
49
7F
00
00
01
7F
41
20
10
00
00
00
ENDCHAR

STARTCHAR C31
ENCODING 31
SWIDTH 714 0
DWIDTH 8 0
BBX 8 16 0 -3
BITMAP
00
40
48
48
48
7F
00
00
01
7F
41
20
10
00
00
00
ENDCHAR

STARTCHAR C32
ENCODING 32
SWIDTH 714 0
DWIDTH 8 0
BBX 8 16 0 -3
BITMAP
00
00
00
00
00
00
00
00
00
00
00
00
00
00
00
00
ENDCHAR

STARTCHAR C33
ENCODING 33
SWIDTH 714 0
DWIDTH 8 0
BBX 8 16 0 -3
BITMAP
00
08
08
08
08
08
08
00
00
08
00
00
00
00
00
00
ENDCHAR

STARTCHAR C34
ENCODING 34
SWIDTH 714 0
DWIDTH 8 0
BBX 8 16 0 -3
BITMAP
00
24
24
24
00
00
00
00
00
00
00
00
00
00
00
00
ENDCHAR

STARTCHAR C35
ENCODING 35
SWIDTH 714 0
DWIDTH 8 0
BBX 8 16 0 -3
BITMAP
00
14
14
7F
14
14
14
7F
14
14
00
00
00
00
00
00
ENDCHAR

STARTCHAR C36
ENCODING 36
SWIDTH 714 0
DWIDTH 8 0
BBX 8 16 0 -3
BITMAP
00
41
22
1C
22
22
22
1C
22
41
00
00
00
00
00
00
ENDCHAR

STARTCHAR C37
ENCODING 37
SWIDTH 714 0
DWIDTH 8 0
BBX 8 16 0 -3
BITMAP
00
20
51
22
04
08
10
22
45
02
00
00
00
00
00
00
ENDCHAR

STARTCHAR C38
ENCODING 38
SWIDTH 714 0
DWIDTH 8 0
BBX 8 16 0 -3
BITMAP
00
38
44
44
38
30
48
45
42
3D
00
00
00
00
00
00
ENDCHAR

STARTCHAR C39
ENCODING 39
SWIDTH 714 0
DWIDTH 8 0
BBX 8 16 0 -3
BITMAP
00
0C
0C
08
10
00
00
00
00
00
00
00
00
00
00
00
ENDCHAR

STARTCHAR C40
ENCODING 40
SWIDTH 714 0
DWIDTH 8 0
BBX 8 16 0 -3
BITMAP
00
04
08
10
10
10
10
10
08
04
00
00
00
00
00
00
ENDCHAR

STARTCHAR C41
ENCODING 41
SWIDTH 714 0
DWIDTH 8 0
BBX 8 16 0 -3
BITMAP
00
10
08
04
04
04
04
04
08
10
00
00
00
00
00
00
ENDCHAR

STARTCHAR C42
ENCODING 42
SWIDTH 714 0
DWIDTH 8 0
BBX 8 16 0 -3
BITMAP
00
00
08
49
2A
1C
2A
49
08
00
00
00
00
00
00
00
ENDCHAR

STARTCHAR C43
ENCODING 43
SWIDTH 714 0
DWIDTH 8 0
BBX 8 16 0 -3
BITMAP
00
00
08
08
08
7F
08
08
08
00
00
00
00
00
00
00
ENDCHAR

STARTCHAR C44
ENCODING 44
SWIDTH 714 0
DWIDTH 8 0
BBX 8 16 0 -3
BITMAP
00
00
00
00
00
00
00
00
0C
0C
08
10
00
00
00
00
ENDCHAR

STARTCHAR C45
ENCODING 45
SWIDTH 714 0
DWIDTH 8 0
BBX 8 16 0 -3
BITMAP
00
00
00
00
00
3E
00
00
00
00
00
00
00
00
00
00
ENDCHAR

STARTCHAR C46
ENCODING 46
SWIDTH 714 0
DWIDTH 8 0
BBX 8 16 0 -3
BITMAP
00
00
00
00
00
00
00
00
0C
0C
00
00
00
00
00
00
ENDCHAR

STARTCHAR C47
ENCODING 47
SWIDTH 714 0
DWIDTH 8 0
BBX 8 16 0 -3
BITMAP
00
00
01
02
04
08
10
20
40
00
00
00
00
00
00
00
ENDCHAR

STARTCHAR C48
ENCODING 48
SWIDTH 714 0
DWIDTH 8 0
BBX 8 16 0 -3
BITMAP
00
3E
41
41
41
49
41
41
41
3E
00
00
00
00
00
00
ENDCHAR

STARTCHAR C49
ENCODING 49
SWIDTH 714 0
DWIDTH 8 0
BBX 8 16 0 -3
BITMAP
00
04
0C
14
24
04
04
04
04
04
00
00
00
00
00
00
ENDCHAR

STARTCHAR C50
ENCODING 50
SWIDTH 714 0
DWIDTH 8 0
BBX 8 16 0 -3
BITMAP
00
3E
41
01
01
06
18
20
40
7F
00
00
00
00
00
00
ENDCHAR

STARTCHAR C51
ENCODING 51
SWIDTH 714 0
DWIDTH 8 0
BBX 8 16 0 -3
BITMAP
00
3E
41
01
01
1E
01
01
41
3E
00
00
00
00
00
00
ENDCHAR

STARTCHAR C52
ENCODING 52
SWIDTH 714 0
DWIDTH 8 0
BBX 8 16 0 -3
BITMAP
00
04
08
10
20
44
44
7F
04
04
00
00
00
00
00
00
ENDCHAR

STARTCHAR C53
ENCODING 53
SWIDTH 714 0
DWIDTH 8 0
BBX 8 16 0 -3
BITMAP
00
7E
40
40
7C
02
01
01
42
3C
00
00
00
00
00
00
ENDCHAR

STARTCHAR C54
ENCODING 54
SWIDTH 714 0
DWIDTH 8 0
BBX 8 16 0 -3
BITMAP
00
1E
20
40
40
7E
41
41
41
3E
00
00
00
00
00
00
ENDCHAR

STARTCHAR C55
ENCODING 55
SWIDTH 714 0
DWIDTH 8 0
BBX 8 16 0 -3
BITMAP
00
7F
01
02
04
08
10
10
10
10
00
00
00
00
00
00
ENDCHAR

STARTCHAR C56
ENCODING 56
SWIDTH 714 0
DWIDTH 8 0
BBX 8 16 0 -3
BITMAP
00
3E
41
41
41
3E
41
41
41
3E
00
00
00
00
00
00
ENDCHAR

STARTCHAR C57
ENCODING 57
SWIDTH 714 0
DWIDTH 8 0
BBX 8 16 0 -3
BITMAP
00
3E
41
41
41
3F
01
01
02
3C
00
00
00
00
00
00
ENDCHAR

STARTCHAR C58
ENCODING 58
SWIDTH 714 0
DWIDTH 8 0
BBX 8 16 0 -3
BITMAP
00
00
00
00
0C
0C
00
00
0C
0C
00
00
00
00
00
00
ENDCHAR

STARTCHAR C59
ENCODING 59
SWIDTH 714 0
DWIDTH 8 0
BBX 8 16 0 -3
BITMAP
00
00
00
00
0C
0C
00
00
0C
0C
08
10
00
00
00
00
ENDCHAR

STARTCHAR C60
ENCODING 60
SWIDTH 714 0
DWIDTH 8 0
BBX 8 16 0 -3
BITMAP
00
02
04
08
10
20
10
08
04
02
00
00
00
00
00
00
ENDCHAR

STARTCHAR C61
ENCODING 61
SWIDTH 714 0
DWIDTH 8 0
BBX 8 16 0 -3
BITMAP
00
00
00
00
7E
00
00
7E
00
00
00
00
00
00
00
00
ENDCHAR

STARTCHAR C62
ENCODING 62
SWIDTH 714 0
DWIDTH 8 0
BBX 8 16 0 -3
BITMAP
00
20
10
08
04
02
04
08
10
20
00
00
00
00
00
00
ENDCHAR

STARTCHAR C63
ENCODING 63
SWIDTH 714 0
DWIDTH 8 0
BBX 8 16 0 -3
BITMAP
00
3E
41
01
02
04
08
08
00
08
00
00
00
00
00
00
ENDCHAR

STARTCHAR C64
ENCODING 64
SWIDTH 714 0
DWIDTH 8 0
BBX 8 16 0 -3
BITMAP
00
3C
42
01
39
45
45
45
45
3A
00
00
00
00
00
00
ENDCHAR

STARTCHAR C65
ENCODING 65
SWIDTH 714 0
DWIDTH 8 0
BBX 8 16 0 -3
BITMAP
00
08
14
22
41
41
7F
41
41
41
00
00
00
00
00
00
ENDCHAR

STARTCHAR C66
ENCODING 66
SWIDTH 714 0
DWIDTH 8 0
BBX 8 16 0 -3
BITMAP
00
7E
21
21
21
3E
21
21
21
7E
00
00
00
00
00
00
ENDCHAR

STARTCHAR C67
ENCODING 67
SWIDTH 714 0
DWIDTH 8 0
BBX 8 16 0 -3
BITMAP
00
1E
21
40
40
40
40
40
21
1E
00
00
00
00
00
00
ENDCHAR

STARTCHAR C68
ENCODING 68
SWIDTH 714 0
DWIDTH 8 0
BBX 8 16 0 -3
BITMAP
00
7C
22
21
21
21
21
21
22
7C
00
00
00
00
00
00
ENDCHAR

STARTCHAR C69
ENCODING 69
SWIDTH 714 0
DWIDTH 8 0
BBX 8 16 0 -3
BITMAP
00
7F
40
40
40
7E
40
40
40
7F
00
00
00
00
00
00
ENDCHAR

STARTCHAR C70
ENCODING 70
SWIDTH 714 0
DWIDTH 8 0
BBX 8 16 0 -3
BITMAP
00
7F
40
40
40
7E
40
40
40
40
00
00
00
00
00
00
ENDCHAR

STARTCHAR C71
ENCODING 71
SWIDTH 714 0
DWIDTH 8 0
BBX 8 16 0 -3
BITMAP
00
1E
21
40
40
4F
41
41
21
1E
00
00
00
00
00
00
ENDCHAR

STARTCHAR C72
ENCODING 72
SWIDTH 714 0
DWIDTH 8 0
BBX 8 16 0 -3
BITMAP
00
41
41
41
41
7F
41
41
41
41
00
00
00
00
00
00
ENDCHAR

STARTCHAR C73
ENCODING 73
SWIDTH 714 0
DWIDTH 8 0
BBX 8 16 0 -3
BITMAP
00
3E
08
08
08
08
08
08
08
3E
00
00
00
00
00
00
ENDCHAR

STARTCHAR C74
ENCODING 74
SWIDTH 714 0
DWIDTH 8 0
BBX 8 16 0 -3
BITMAP
00
02
02
02
02
02
02
42
42
3C
00
00
00
00
00
00
ENDCHAR

STARTCHAR C75
ENCODING 75
SWIDTH 714 0
DWIDTH 8 0
BBX 8 16 0 -3
BITMAP
00
41
42
44
48
70
48
44
42
41
00
00
00
00
00
00
ENDCHAR

STARTCHAR C76
ENCODING 76
SWIDTH 714 0
DWIDTH 8 0
BBX 8 16 0 -3
BITMAP
00
40
40
40
40
40
40
40
40
7F
00
00
00
00
00
00
ENDCHAR

STARTCHAR C77
ENCODING 77
SWIDTH 714 0
DWIDTH 8 0
BBX 8 16 0 -3
BITMAP
00
41
63
55
49
49
41
41
41
41
00
00
00
00
00
00
ENDCHAR

STARTCHAR C78
ENCODING 78
SWIDTH 714 0
DWIDTH 8 0
BBX 8 16 0 -3
BITMAP
00
41
41
61
51
49
45
43
41
41
00
00
00
00
00
00
ENDCHAR

STARTCHAR C79
ENCODING 79
SWIDTH 714 0
DWIDTH 8 0
BBX 8 16 0 -3
BITMAP
00
1C
22
41
41
41
41
41
22
1C
00
00
00
00
00
00
ENDCHAR

STARTCHAR C80
ENCODING 80
SWIDTH 714 0
DWIDTH 8 0
BBX 8 16 0 -3
BITMAP
00
7E
41
41
41
7E
40
40
40
40
00
00
00
00
00
00
ENDCHAR

STARTCHAR C81
ENCODING 81
SWIDTH 714 0
DWIDTH 8 0
BBX 8 16 0 -3
BITMAP
00
1C
22
41
41
41
49
45
22
1D
00
00
00
00
00
00
ENDCHAR

STARTCHAR C82
ENCODING 82
SWIDTH 714 0
DWIDTH 8 0
BBX 8 16 0 -3
BITMAP
00
7E
41
41
41
7E
48
44
42
41
00
00
00
00
00
00
ENDCHAR

STARTCHAR C83
ENCODING 83
SWIDTH 714 0
DWIDTH 8 0
BBX 8 16 0 -3
BITMAP
00
3E
41
40
40
3E
01
01
41
3E
00
00
00
00
00
00
ENDCHAR

STARTCHAR C84
ENCODING 84
SWIDTH 714 0
DWIDTH 8 0
BBX 8 16 0 -3
BITMAP
00
7F
08
08
08
08
08
08
08
08
00
00
00
00
00
00
ENDCHAR

STARTCHAR C85
ENCODING 85
SWIDTH 714 0
DWIDTH 8 0
BBX 8 16 0 -3
BITMAP
00
41
41
41
41
41
41
41
41
3E
00
00
00
00
00
00
ENDCHAR

STARTCHAR C86
ENCODING 86
SWIDTH 714 0
DWIDTH 8 0
BBX 8 16 0 -3
BITMAP
00
41
41
41
22
22
14
14
08
08
00
00
00
00
00
00
ENDCHAR

STARTCHAR C87
ENCODING 87
SWIDTH 714 0
DWIDTH 8 0
BBX 8 16 0 -3
BITMAP
00
41
41
41
41
41
49
49
55
22
00
00
00
00
00
00
ENDCHAR

STARTCHAR C88
ENCODING 88
SWIDTH 714 0
DWIDTH 8 0
BBX 8 16 0 -3
BITMAP
00
41
41
22
14
08
14
22
41
41
00
00
00
00
00
00
ENDCHAR

STARTCHAR C89
ENCODING 89
SWIDTH 714 0
DWIDTH 8 0
BBX 8 16 0 -3
BITMAP
00
41
41
22
14
08
08
08
08
08
00
00
00
00
00
00
ENDCHAR

STARTCHAR C90
ENCODING 90
SWIDTH 714 0
DWIDTH 8 0
BBX 8 16 0 -3
BITMAP
00
7F
01
02
04
08
10
20
40
7F
00
00
00
00
00
00
ENDCHAR

STARTCHAR C91
ENCODING 91
SWIDTH 714 0
DWIDTH 8 0
BBX 8 16 0 -3
BITMAP
38
20
20
20
20
20
20
20
20
20
20
38
00
00
00
00
ENDCHAR

STARTCHAR C92
ENCODING 92
SWIDTH 714 0
DWIDTH 8 0
BBX 8 16 0 -3
BITMAP
00
00
40
20
10
08
04
02
01
00
00
00
00
00
00
00
ENDCHAR

STARTCHAR C93
ENCODING 93
SWIDTH 714 0
DWIDTH 8 0
BBX 8 16 0 -3
BITMAP
38
08
08
08
08
08
08
08
08
08
08
38
00
00
00
00
ENDCHAR

STARTCHAR C94
ENCODING 94
SWIDTH 714 0
DWIDTH 8 0
BBX 8 16 0 -3
BITMAP
00
08
14
22
00
00
00
00
00
00
00
00
00
00
00
00
ENDCHAR

STARTCHAR C95
ENCODING 95
SWIDTH 714 0
DWIDTH 8 0
BBX 8 16 0 -3
BITMAP
00
00
00
00
00
00
00
00
00
7E
00
00
00
00
00
00
ENDCHAR

STARTCHAR C96
ENCODING 96
SWIDTH 714 0
DWIDTH 8 0
BBX 8 16 0 -3
BITMAP
00
18
18
08
04
00
00
00
00
00
00
00
00
00
00
00
ENDCHAR

STARTCHAR C97
ENCODING 97
SWIDTH 714 0
DWIDTH 8 0
BBX 8 16 0 -3
BITMAP
00
00
00
3E
41
01
3F
41
43
3D
00
00
00
00
00
00
ENDCHAR

STARTCHAR C98
ENCODING 98
SWIDTH 714 0
DWIDTH 8 0
BBX 8 16 0 -3
BITMAP
00
40
40
5C
62
41
41
41
62
5C
00
00
00
00
00
00
ENDCHAR

STARTCHAR C99
ENCODING 99
SWIDTH 714 0
DWIDTH 8 0
BBX 8 16 0 -3
BITMAP
00
00
00
1E
21
40
40
40
21
1E
00
00
00
00
00
00
ENDCHAR

STARTCHAR C100
ENCODING 100
SWIDTH 714 0
DWIDTH 8 0
BBX 8 16 0 -3
BITMAP
00
01
01
1D
23
41
41
41
23
1D
00
00
00
00
00
00
ENDCHAR

STARTCHAR C101
ENCODING 101
SWIDTH 714 0
DWIDTH 8 0
BBX 8 16 0 -3
BITMAP
00
00
00
1C
22
41
7F
40
22
1C
00
00
00
00
00
00
ENDCHAR

STARTCHAR C102
ENCODING 102
SWIDTH 714 0
DWIDTH 8 0
BBX 8 16 0 -3
BITMAP
00
07
08
7F
08
08
08
08
08
08
00
00
00
00
00
00
ENDCHAR

STARTCHAR C103
ENCODING 103
SWIDTH 714 0
DWIDTH 8 0
BBX 8 16 0 -3
BITMAP
00
00
00
1D
23
41
41
41
23
1D
01
21
1E
00
00
00
ENDCHAR

STARTCHAR C104
ENCODING 104
SWIDTH 714 0
DWIDTH 8 0
BBX 8 16 0 -3
BITMAP
00
40
40
5E
61
41
41
41
41
41
00
00
00
00
00
00
ENDCHAR

STARTCHAR C105
ENCODING 105
SWIDTH 714 0
DWIDTH 8 0
BBX 8 16 0 -3
BITMAP
00
08
00
38
08
08
08
08
08
3E
00
00
00
00
00
00
ENDCHAR

STARTCHAR C106
ENCODING 106
SWIDTH 714 0
DWIDTH 8 0
BBX 8 16 0 -3
BITMAP
00
08
00
38
08
08
08
08
08
08
08
48
30
00
00
00
ENDCHAR

STARTCHAR C107
ENCODING 107
SWIDTH 714 0
DWIDTH 8 0
BBX 8 16 0 -3
BITMAP
00
40
40
42
44
48
70
48
44
42
00
00
00
00
00
00
ENDCHAR

STARTCHAR C108
ENCODING 108
SWIDTH 714 0
DWIDTH 8 0
BBX 8 16 0 -3
BITMAP
00
10
10
10
10
10
10
10
10
0E
00
00
00
00
00
00
ENDCHAR

STARTCHAR C109
ENCODING 109
SWIDTH 714 0
DWIDTH 8 0
BBX 8 16 0 -3
BITMAP
00
00
00
76
49
49
49
49
49
49
00
00
00
00
00
00
ENDCHAR

STARTCHAR C110
ENCODING 110
SWIDTH 714 0
DWIDTH 8 0
BBX 8 16 0 -3
BITMAP
00
00
00
5E
61
41
41
41
41
41
00
00
00
00
00
00
ENDCHAR

STARTCHAR C111
ENCODING 111
SWIDTH 714 0
DWIDTH 8 0
BBX 8 16 0 -3
BITMAP
00
00
00
1C
22
41
41
41
22
1C
00
00
00
00
00
00
ENDCHAR

STARTCHAR C112
ENCODING 112
SWIDTH 714 0
DWIDTH 8 0
BBX 8 16 0 -3
BITMAP
00
00
00
5C
62
41
41
41
62
5C
40
40
40
00
00
00
ENDCHAR

STARTCHAR C113
ENCODING 113
SWIDTH 714 0
DWIDTH 8 0
BBX 8 16 0 -3
BITMAP
00
00
00
1D
23
41
41
41
23
1D
01
01
01
00
00
00
ENDCHAR

STARTCHAR C114
ENCODING 114
SWIDTH 714 0
DWIDTH 8 0
BBX 8 16 0 -3
BITMAP
00
00
00
2E
31
20
20
20
20
20
00
00
00
00
00
00
ENDCHAR

STARTCHAR C115
ENCODING 115
SWIDTH 714 0
DWIDTH 8 0
BBX 8 16 0 -3
BITMAP
00
00
00
3E
41
40
3E
01
41
3E
00
00
00
00
00
00
ENDCHAR

STARTCHAR C116
ENCODING 116
SWIDTH 714 0
DWIDTH 8 0
BBX 8 16 0 -3
BITMAP
00
08
08
7F
08
08
08
08
08
07
00
00
00
00
00
00
ENDCHAR

STARTCHAR C117
ENCODING 117
SWIDTH 714 0
DWIDTH 8 0
BBX 8 16 0 -3
BITMAP
00
00
00
41
41
41
41
41
43
3D
00
00
00
00
00
00
ENDCHAR

STARTCHAR C118
ENCODING 118
SWIDTH 714 0
DWIDTH 8 0
BBX 8 16 0 -3
BITMAP
00
00
00
41
41
41
41
22
14
08
00
00
00
00
00
00
ENDCHAR

STARTCHAR C119
ENCODING 119
SWIDTH 714 0
DWIDTH 8 0
BBX 8 16 0 -3
BITMAP
00
00
00
41
41
41
49
49
55
22
00
00
00
00
00
00
ENDCHAR

STARTCHAR C120
ENCODING 120
SWIDTH 714 0
DWIDTH 8 0
BBX 8 16 0 -3
BITMAP
00
00
00
41
22
14
08
14
22
41
00
00
00
00
00
00
ENDCHAR

STARTCHAR C121
ENCODING 121
SWIDTH 714 0
DWIDTH 8 0
BBX 8 16 0 -3
BITMAP
00
00
00
41
41
22
22
14
14
08
08
10
60
00
00
00
ENDCHAR

STARTCHAR C122
ENCODING 122
SWIDTH 714 0
DWIDTH 8 0
BBX 8 16 0 -3
BITMAP
00
00
00
7F
02
04
08
10
20
7F
00
00
00
00
00
00
ENDCHAR

STARTCHAR C123
ENCODING 123
SWIDTH 714 0
DWIDTH 8 0
BBX 8 16 0 -3
BITMAP
0C
10
10
10
10
60
10
10
10
10
0C
00
00
00
00
00
ENDCHAR

STARTCHAR C124
ENCODING 124
SWIDTH 714 0
DWIDTH 8 0
BBX 8 16 0 -3
BITMAP
00
08
08
08
08
08
08
08
08
08
00
00
00
00
00
00
ENDCHAR

STARTCHAR C125
ENCODING 125
SWIDTH 714 0
DWIDTH 8 0
BBX 8 16 0 -3
BITMAP
60
10
10
10
10
0C
10
10
10
10
60
00
00
00
00
00
ENDCHAR

STARTCHAR C126
ENCODING 126
SWIDTH 714 0
DWIDTH 8 0
BBX 8 16 0 -3
BITMAP
00
7E
00
00
00
00
00
00
00
00
00
00
00
00
00
00
ENDCHAR

STARTCHAR C127
ENCODING 127
SWIDTH 714 0
DWIDTH 8 0
BBX 8 16 0 -3
BITMAP
00
00
00
49
12
24
49
12
24
49
00
00
00
00
00
00
ENDCHAR

STARTCHAR C128
ENCODING 128
SWIDTH 714 0
DWIDTH 8 0
BBX 8 16 0 -3
BITMAP
00
00
00
10
18
14
18
10
00
00
00
00
00
00
00
00
ENDCHAR

STARTCHAR C129
ENCODING 129
SWIDTH 714 0
DWIDTH 8 0
BBX 8 16 0 -3
BITMAP
00
3E
41
55
41
41
5D
49
41
3E
00
00
00
00
00
00
ENDCHAR

STARTCHAR C130
ENCODING 130
SWIDTH 714 0
DWIDTH 8 0
BBX 8 16 0 -3
BITMAP
00
3E
7F
6B
7F
7F
63
77
3E
1C
00
00
00
00
00
00
ENDCHAR

STARTCHAR C131
ENCODING 131
SWIDTH 714 0
DWIDTH 8 0
BBX 8 16 0 -3
BITMAP
00
00
36
7F
7F
7F
7F
3E
1C
08
00
00
00
00
00
00
ENDCHAR

STARTCHAR C132
ENCODING 132
SWIDTH 714 0
DWIDTH 8 0
BBX 8 16 0 -3
BITMAP
00
00
08
1C
3E
7F
3E
1C
08
00
00
00
00
00
00
00
ENDCHAR

STARTCHAR C133
ENCODING 133
SWIDTH 714 0
DWIDTH 8 0
BBX 8 16 0 -3
BITMAP
00
08
1C
1C
77
77
77
08
08
1C
00
00
00
00
00
00
ENDCHAR

STARTCHAR C134
ENCODING 134
SWIDTH 714 0
DWIDTH 8 0
BBX 8 16 0 -3
BITMAP
00
08
1C
3E
7F
7F
3E
08
08
1C
00
00
00
00
00
00
ENDCHAR

STARTCHAR C135
ENCODING 135
SWIDTH 714 0
DWIDTH 8 0
BBX 8 16 0 -3
BITMAP
00
00
00
18
3C
3C
18
00
00
00
00
00
00
00
00
00
ENDCHAR

STARTCHAR C136
ENCODING 136
SWIDTH 714 0
DWIDTH 8 0
BBX 8 16 0 -3
BITMAP
00
7F
7F
63
41
41
63
7F
7F
00
00
00
00
00
00
00
ENDCHAR

STARTCHAR C137
ENCODING 137
SWIDTH 714 0
DWIDTH 8 0
BBX 8 16 0 -3
BITMAP
00
00
0C
12
21
21
12
0C
00
00
00
00
00
00
00
00
ENDCHAR

STARTCHAR C138
ENCODING 138
SWIDTH 714 0
DWIDTH 8 0
BBX 8 16 0 -3
BITMAP
00
FF
E7
DB
BD
BD
DB
E7
FF
00
00
00
00
00
00
00
ENDCHAR

STARTCHAR C139
ENCODING 139
SWIDTH 714 0
DWIDTH 8 0
BBX 8 16 0 -3
BITMAP
00
0A
05
38
44
44
38
00
00
00
00
00
00
00
00
00
ENDCHAR

STARTCHAR C140
ENCODING 140
SWIDTH 714 0
DWIDTH 8 0
BBX 8 16 0 -3
BITMAP
00
00
00
38
44
44
38
10
38
10
00
00
00
00
00
00
ENDCHAR

STARTCHAR C141
ENCODING 141
SWIDTH 714 0
DWIDTH 8 0
BBX 8 16 0 -3
BITMAP
00
0C
0A
09
08
08
08
38
38
38
00
00
00
00
00
00
ENDCHAR

STARTCHAR C142
ENCODING 142
SWIDTH 714 0
DWIDTH 8 0
BBX 8 16 0 -3
BITMAP
00
1C
12
19
15
13
11
71
71
77
07
07
00
00
00
00
ENDCHAR

STARTCHAR C143
ENCODING 143
SWIDTH 714 0
DWIDTH 8 0
BBX 8 16 0 -3
BITMAP
00
00
08
5D
36
63
36
5D
08
00
00
00
00
00
00
00
ENDCHAR

STARTCHAR C144
ENCODING 144
SWIDTH 714 0
DWIDTH 8 0
BBX 8 16 0 -3
BITMAP
00
00
00
60
7C
7F
7C
60
00
00
00
00
00
00
00
00
ENDCHAR

STARTCHAR C145
ENCODING 145
SWIDTH 714 0
DWIDTH 8 0
BBX 8 16 0 -3
BITMAP
00
00
00
03
1F
7F
1F
03
00
00
00
00
00
00
00
00
ENDCHAR

STARTCHAR C146
ENCODING 146
SWIDTH 714 0
DWIDTH 8 0
BBX 8 16 0 -3
BITMAP
00
0C
1E
3F
0C
0C
0C
3F
1E
0C
00
00
00
00
00
00
ENDCHAR

STARTCHAR C147
ENCODING 147
SWIDTH 714 0
DWIDTH 8 0
BBX 8 16 0 -3
BITMAP
00
33
33
33
33
33
33
00
33
33
00
00
00
00
00
00
ENDCHAR

STARTCHAR C148
ENCODING 148
SWIDTH 714 0
DWIDTH 8 0
BBX 8 16 0 -3
BITMAP
00
3F
52
52
32
12
12
12
12
12
00
00
00
00
00
00
ENDCHAR

STARTCHAR C149
ENCODING 149
SWIDTH 714 0
DWIDTH 8 0
BBX 8 16 0 -3
BITMAP
00
00
00
06
0A
12
22
12
0A
06
00
00
00
00
00
00
ENDCHAR

STARTCHAR C150
ENCODING 150
SWIDTH 714 0
DWIDTH 8 0
BBX 8 16 0 -3
BITMAP
00
00
00
00
00
00
00
7F
7F
7F
00
00
00
00
00
00
ENDCHAR

STARTCHAR C151
ENCODING 151
SWIDTH 714 0
DWIDTH 8 0
BBX 8 16 0 -3
BITMAP
00
00
0C
1E
3F
0C
0C
0C
3F
1E
0C
00
3F
00
00
00
ENDCHAR

STARTCHAR C152
ENCODING 152
SWIDTH 714 0
DWIDTH 8 0
BBX 8 16 0 -3
BITMAP
00
0C
1E
3F
0C
0C
0C
0C
0C
0C
00
00
00
00
00
00
ENDCHAR

STARTCHAR C153
ENCODING 153
SWIDTH 714 0
DWIDTH 8 0
BBX 8 16 0 -3
BITMAP
00
0C
0C
0C
0C
0C
0C
3F
1E
0C
00
00
00
00
00
00
ENDCHAR

STARTCHAR C154
ENCODING 154
SWIDTH 714 0
DWIDTH 8 0
BBX 8 16 0 -3
BITMAP
00
00
00
04
06
7F
06
04
00
00
00
00
00
00
00
00
ENDCHAR

STARTCHAR C155
ENCODING 155
SWIDTH 714 0
DWIDTH 8 0
BBX 8 16 0 -3
BITMAP
00
00
00
10
30
7F
30
10
00
00
00
00
00
00
00
00
ENDCHAR

STARTCHAR C156
ENCODING 156
SWIDTH 714 0
DWIDTH 8 0
BBX 8 16 0 -3
BITMAP
00
00
00
00
40
40
40
7F
00
00
00
00
00
00
00
00
ENDCHAR

STARTCHAR C157
ENCODING 157
SWIDTH 714 0
DWIDTH 8 0
BBX 8 16 0 -3
BITMAP
00
00
00
14
36
7F
36
14
00
00
00
00
00
00
00
00
ENDCHAR

STARTCHAR C158
ENCODING 158
SWIDTH 714 0
DWIDTH 8 0
BBX 8 16 0 -3
BITMAP
00
00
00
00
08
1C
3E
00
00
00
00
00
00
00
00
00
ENDCHAR

STARTCHAR C159
ENCODING 159
SWIDTH 714 0
DWIDTH 8 0
BBX 8 16 0 -3
BITMAP
00
00
00
00
3E
1C
08
00
00
00
00
00
00
00
00
00
ENDCHAR

STARTCHAR C160
ENCODING 160
SWIDTH 714 0
DWIDTH 8 0
BBX 8 16 0 -3
BITMAP
00
00
00
04
08
10
08
04
00
00
00
00
00
00
00
00
ENDCHAR

STARTCHAR C161
ENCODING 161
SWIDTH 714 0
DWIDTH 8 0
BBX 8 16 0 -3
BITMAP
10
08
00
3E
41
01
3F
41
43
3D
00
00
00
00
00
00
ENDCHAR

STARTCHAR C162
ENCODING 162
SWIDTH 714 0
DWIDTH 8 0
BBX 8 16 0 -3
BITMAP
08
10
00
3E
41
01
3F
41
43
3D
00
00
00
00
00
00
ENDCHAR

STARTCHAR C163
ENCODING 163
SWIDTH 714 0
DWIDTH 8 0
BBX 8 16 0 -3
BITMAP
08
22
00
3E
41
01
3F
41
43
3D
00
00
00
00
00
00
ENDCHAR

STARTCHAR C164
ENCODING 164
SWIDTH 714 0
DWIDTH 8 0
BBX 8 16 0 -3
BITMAP
00
22
00
3E
41
01
3F
41
43
3D
00
00
00
00
00
00
ENDCHAR

STARTCHAR C165
ENCODING 165
SWIDTH 714 0
DWIDTH 8 0
BBX 8 16 0 -3
BITMAP
1C
22
1C
3E
41
01
3F
41
43
3D
00
00
00
00
00
00
ENDCHAR

STARTCHAR C166
ENCODING 166
SWIDTH 714 0
DWIDTH 8 0
BBX 8 16 0 -3
BITMAP
00
00
00
3E
41
01
3F
41
43
3D
08
12
0C
00
00
00
ENDCHAR

STARTCHAR C167
ENCODING 167
SWIDTH 714 0
DWIDTH 8 0
BBX 8 16 0 -3
BITMAP
32
4C
00
3E
41
01
3F
41
43
3D
00
00
00
00
00
00
ENDCHAR

STARTCHAR C168
ENCODING 168
SWIDTH 714 0
DWIDTH 8 0
BBX 8 16 0 -3
BITMAP
22
1C
00
3E
41
01
3F
41
43
3D
00
00
00
00
00
00
ENDCHAR

STARTCHAR C169
ENCODING 169
SWIDTH 714 0
DWIDTH 8 0
BBX 8 16 0 -3
BITMAP
00
00
00
36
49
09
3F
48
49
3E
00
00
00
00
00
00
ENDCHAR

STARTCHAR C170
ENCODING 170
SWIDTH 714 0
DWIDTH 8 0
BBX 8 16 0 -3
BITMAP
00
00
00
1E
21
40
40
40
21
1E
04
22
1C
00
00
00
ENDCHAR

STARTCHAR C171
ENCODING 171
SWIDTH 714 0
DWIDTH 8 0
BBX 8 16 0 -3
BITMAP
14
08
00
1E
21
40
40
40
21
1E
00
00
00
00
00
00
ENDCHAR

STARTCHAR C172
ENCODING 172
SWIDTH 714 0
DWIDTH 8 0
BBX 8 16 0 -3
BITMAP
08
10
00
1E
21
40
40
40
21
1E
00
00
00
00
00
00
ENDCHAR

STARTCHAR C173
ENCODING 173
SWIDTH 714 0
DWIDTH 8 0
BBX 8 16 0 -3
BITMAP
00
48
10
28
04
3E
41
41
21
1E
00
00
00
00
00
00
ENDCHAR

STARTCHAR C174
ENCODING 174
SWIDTH 714 0
DWIDTH 8 0
BBX 8 16 0 -3
BITMAP
01
03
01
1D
23
41
41
41
23
1D
00
00
00
00
00
00
ENDCHAR

STARTCHAR C175
ENCODING 175
SWIDTH 714 0
DWIDTH 8 0
BBX 8 16 0 -3
BITMAP
14
09
01
1D
23
41
41
41
23
1D
00
00
00
00
00
00
ENDCHAR

STARTCHAR C176
ENCODING 176
SWIDTH 714 0
DWIDTH 8 0
BBX 8 16 0 -3
BITMAP
10
08
00
1C
22
41
7F
40
22
1C
00
00
00
00
00
00
ENDCHAR

STARTCHAR C177
ENCODING 177
SWIDTH 714 0
DWIDTH 8 0
BBX 8 16 0 -3
BITMAP
08
10
00
1C
22
41
7F
40
22
1C
00
00
00
00
00
00
ENDCHAR

STARTCHAR C178
ENCODING 178
SWIDTH 714 0
DWIDTH 8 0
BBX 8 16 0 -3
BITMAP
08
14
00
1C
22
41
7F
40
22
1C
00
00
00
00
00
00
ENDCHAR

STARTCHAR C179
ENCODING 179
SWIDTH 714 0
DWIDTH 8 0
BBX 8 16 0 -3
BITMAP
00
22
00
1C
22
41
7F
40
22
1C
00
00
00
00
00
00
ENDCHAR

STARTCHAR C180
ENCODING 180
SWIDTH 714 0
DWIDTH 8 0
BBX 8 16 0 -3
BITMAP
22
1C
00
1C
22
41
7F
40
22
1C
00
00
00
00
00
00
ENDCHAR

STARTCHAR C181
ENCODING 181
SWIDTH 714 0
DWIDTH 8 0
BBX 8 16 0 -3
BITMAP
00
00
00
1C
22
41
7F
40
22
1C
08
12
0C
00
00
00
ENDCHAR

STARTCHAR C182
ENCODING 182
SWIDTH 714 0
DWIDTH 8 0
BBX 8 16 0 -3
BITMAP
22
1C
00
1D
23
41
41
41
23
1D
01
21
1E
00
00
00
ENDCHAR

STARTCHAR C183
ENCODING 183
SWIDTH 714 0
DWIDTH 8 0
BBX 8 16 0 -3
BITMAP
00
00
00
08
28
08
08
08
08
3E
00
00
00
00
00
00
ENDCHAR

STARTCHAR C184
ENCODING 184
SWIDTH 714 0
DWIDTH 8 0
BBX 8 16 0 -3
BITMAP
08
14
00
08
28
08
08
08
08
3E
00
00
00
00
00
00
ENDCHAR

STARTCHAR C185
ENCODING 185
SWIDTH 714 0
DWIDTH 8 0
BBX 8 16 0 -3
BITMAP
10
08
00
08
28
08
08
08
08
3E
00
00
00
00
00
00
ENDCHAR

STARTCHAR C186
ENCODING 186
SWIDTH 714 0
DWIDTH 8 0
BBX 8 16 0 -3
BITMAP
14
08
00
08
28
08
08
08
08
3E
00
00
00
00
00
00
ENDCHAR

STARTCHAR C187
ENCODING 187
SWIDTH 714 0
DWIDTH 8 0
BBX 8 16 0 -3
BITMAP
00
22
00
08
28
08
08
08
08
3E
00
00
00
00
00
00
ENDCHAR

STARTCHAR C188
ENCODING 188
SWIDTH 714 0
DWIDTH 8 0
BBX 8 16 0 -3
BITMAP
00
22
00
66
22
22
22
22
22
72
02
02
0C
00
00
00
ENDCHAR

STARTCHAR C189
ENCODING 189
SWIDTH 714 0
DWIDTH 8 0
BBX 8 16 0 -3
BITMAP
48
48
08
08
08
08
08
08
08
07
00
00
00
00
00
00
ENDCHAR

STARTCHAR C190
ENCODING 190
SWIDTH 714 0
DWIDTH 8 0
BBX 8 16 0 -3
BITMAP
00
08
0A
08
28
08
08
08
08
07
00
00
00
00
00
00
ENDCHAR

STARTCHAR C191
ENCODING 191
SWIDTH 714 0
DWIDTH 8 0
BBX 8 16 0 -3
BITMAP
0A
04
10
10
10
10
10
10
10
0E
00
00
00
00
00
00
ENDCHAR

STARTCHAR C192
ENCODING 192
SWIDTH 714 0
DWIDTH 8 0
BBX 8 16 0 -3
BITMAP
14
08
00
5E
61
41
41
41
41
41
00
00
00
00
00
00
ENDCHAR

STARTCHAR C193
ENCODING 193
SWIDTH 714 0
DWIDTH 8 0
BBX 8 16 0 -3
BITMAP
08
10
00
5E
61
41
41
41
41
41
00
00
00
00
00
00
ENDCHAR

STARTCHAR C194
ENCODING 194
SWIDTH 714 0
DWIDTH 8 0
BBX 8 16 0 -3
BITMAP
32
4C
00
5E
61
41
41
41
41
41
00
00
00
00
00
00
ENDCHAR

STARTCHAR C195
ENCODING 195
SWIDTH 714 0
DWIDTH 8 0
BBX 8 16 0 -3
BITMAP
10
08
00
1C
22
41
41
41
22
1C
00
00
00
00
00
00
ENDCHAR

STARTCHAR C196
ENCODING 196
SWIDTH 714 0
DWIDTH 8 0
BBX 8 16 0 -3
BITMAP
08
10
00
1C
22
41
41
41
22
1C
00
00
00
00
00
00
ENDCHAR

STARTCHAR C197
ENCODING 197
SWIDTH 714 0
DWIDTH 8 0
BBX 8 16 0 -3
BITMAP
08
14
00
1C
22
41
41
41
22
1C
00
00
00
00
00
00
ENDCHAR

STARTCHAR C198
ENCODING 198
SWIDTH 714 0
DWIDTH 8 0
BBX 8 16 0 -3
BITMAP
00
22
00
1C
22
41
41
41
22
1C
00
00
00
00
00
00
ENDCHAR

STARTCHAR C199
ENCODING 199
SWIDTH 714 0
DWIDTH 8 0
BBX 8 16 0 -3
BITMAP
32
4C
00
1C
22
41
41
41
22
1C
00
00
00
00
00
00
ENDCHAR

STARTCHAR C200
ENCODING 200
SWIDTH 714 0
DWIDTH 8 0
BBX 8 16 0 -3
BITMAP
00
00
00
1D
22
45
49
51
22
5C
00
00
00
00
00
00
ENDCHAR

STARTCHAR C201
ENCODING 201
SWIDTH 714 0
DWIDTH 8 0
BBX 8 16 0 -3
BITMAP
22
22
00
1C
22
41
41
41
22
1C
00
00
00
00
00
00
ENDCHAR

STARTCHAR C202
ENCODING 202
SWIDTH 714 0
DWIDTH 8 0
BBX 8 16 0 -3
BITMAP
00
00
00
36
49
49
4F
48
49
36
00
00
00
00
00
00
ENDCHAR

STARTCHAR C203
ENCODING 203
SWIDTH 714 0
DWIDTH 8 0
BBX 8 16 0 -3
BITMAP
00
00
40
5C
62
41
41
41
62
5C
40
40
40
00
00
00
ENDCHAR

STARTCHAR C204
ENCODING 204
SWIDTH 714 0
DWIDTH 8 0
BBX 8 16 0 -3
BITMAP
14
08
00
2E
31
20
20
20
20
20
00
00
00
00
00
00
ENDCHAR

STARTCHAR C205
ENCODING 205
SWIDTH 714 0
DWIDTH 8 0
BBX 8 16 0 -3
BITMAP
08
10
00
2E
31
20
20
20
20
20
20
00
00
00
00
00
ENDCHAR

STARTCHAR C206
ENCODING 206
SWIDTH 714 0
DWIDTH 8 0
BBX 8 16 0 -3
BITMAP
14
08
00
3E
41
40
3E
01
41
3E
00
00
00
00
00
00
ENDCHAR

STARTCHAR C207
ENCODING 207
SWIDTH 714 0
DWIDTH 8 0
BBX 8 16 0 -3
BITMAP
08
10
00
3E
41
40
3E
01
41
3E
00
00
00
00
00
00
ENDCHAR

STARTCHAR C208
ENCODING 208
SWIDTH 714 0
DWIDTH 8 0
BBX 8 16 0 -3
BITMAP
00
00
00
3E
41
40
3E
01
41
3E
04
22
1C
00
00
00
ENDCHAR

STARTCHAR C209
ENCODING 209
SWIDTH 714 0
DWIDTH 8 0
BBX 8 16 0 -3
BITMAP
00
3C
42
42
4C
42
42
42
42
4C
00
00
00
00
00
00
ENDCHAR

STARTCHAR C210
ENCODING 210
SWIDTH 714 0
DWIDTH 8 0
BBX 8 16 0 -3
BITMAP
00
08
08
7F
08
08
08
08
08
06
01
21
0E
00
00
00
ENDCHAR

STARTCHAR C211
ENCODING 211
SWIDTH 714 0
DWIDTH 8 0
BBX 8 16 0 -3
BITMAP
0A
04
10
7C
10
10
10
10
10
0E
00
00
00
00
00
00
ENDCHAR

STARTCHAR C212
ENCODING 212
SWIDTH 714 0
DWIDTH 8 0
BBX 8 16 0 -3
BITMAP
10
08
00
41
41
41
41
41
43
3D
00
00
00
00
00
00
ENDCHAR

STARTCHAR C213
ENCODING 213
SWIDTH 714 0
DWIDTH 8 0
BBX 8 16 0 -3
BITMAP
08
10
00
41
41
41
41
41
43
3D
00
00
00
00
00
00
ENDCHAR

STARTCHAR C214
ENCODING 214
SWIDTH 714 0
DWIDTH 8 0
BBX 8 16 0 -3
BITMAP
08
14
00
41
41
41
41
41
43
3D
00
00
00
00
00
00
ENDCHAR

STARTCHAR C215
ENCODING 215
SWIDTH 714 0
DWIDTH 8 0
BBX 8 16 0 -3
BITMAP
00
22
00
41
41
41
41
41
43
3D
00
00
00
00
00
00
ENDCHAR

STARTCHAR C216
ENCODING 216
SWIDTH 714 0
DWIDTH 8 0
BBX 8 16 0 -3
BITMAP
1C
22
1C
41
41
41
41
41
43
3D
00
00
00
00
00
00
ENDCHAR

STARTCHAR C217
ENCODING 217
SWIDTH 714 0
DWIDTH 8 0
BBX 8 16 0 -3
BITMAP
21
42
00
41
41
41
41
41
43
3D
00
00
00
00
00
00
ENDCHAR

STARTCHAR C218
ENCODING 218
SWIDTH 714 0
DWIDTH 8 0
BBX 8 16 0 -3
BITMAP
08
10
00
41
41
22
22
14
14
08
08
10
60
00
00
00
ENDCHAR

STARTCHAR C219
ENCODING 219
SWIDTH 714 0
DWIDTH 8 0
BBX 8 16 0 -3
BITMAP
00
22
00
41
41
22
22
14
14
08
08
10
60
00
00
00
ENDCHAR

STARTCHAR C220
ENCODING 220
SWIDTH 714 0
DWIDTH 8 0
BBX 8 16 0 -3
BITMAP
14
08
00
7F
02
04
08
10
20
7F
00
00
00
00
00
00
ENDCHAR

STARTCHAR C221
ENCODING 221
SWIDTH 714 0
DWIDTH 8 0
BBX 8 16 0 -3
BITMAP
08
10
00
7F
02
04
08
10
20
7F
00
00
00
00
00
00
ENDCHAR

STARTCHAR C222
ENCODING 222
SWIDTH 714 0
DWIDTH 8 0
BBX 8 16 0 -3
BITMAP
00
08
00
7F
02
04
08
10
20
7F
00
00
00
00
00
00
ENDCHAR

STARTCHAR C223
ENCODING 223
SWIDTH 714 0
DWIDTH 8 0
BBX 8 16 0 -3
BITMAP
08
10
00
7F
40
40
7E
40
40
7F
00
00
00
00
00
00
ENDCHAR

STARTCHAR C224
ENCODING 224
SWIDTH 714 0
DWIDTH 8 0
BBX 8 16 0 -3
BITMAP
1C
22
1C
22
41
41
7F
41
41
41
00
00
00
00
00
00
ENDCHAR

STARTCHAR C225
ENCODING 225
SWIDTH 714 0
DWIDTH 8 0
BBX 8 16 0 -3
BITMAP
00
1F
24
44
44
47
7C
44
44
47
00
00
00
00
00
00
ENDCHAR

STARTCHAR C226
ENCODING 226
SWIDTH 714 0
DWIDTH 8 0
BBX 8 16 0 -3
BITMAP
00
7C
22
21
21
71
21
21
22
7C
00
00
00
00
00
00
ENDCHAR

STARTCHAR C227
ENCODING 227
SWIDTH 714 0
DWIDTH 8 0
BBX 8 16 0 -3
BITMAP
08
00
3E
08
08
08
08
08
08
3E
00
00
00
00
00
00
ENDCHAR

STARTCHAR C228
ENCODING 228
SWIDTH 714 0
DWIDTH 8 0
BBX 8 16 0 -3
BITMAP
00
11
31
11
11
11
11
11
11
16
00
00
00
00
00
00
ENDCHAR

STARTCHAR C229
ENCODING 229
SWIDTH 714 0
DWIDTH 8 0
BBX 8 16 0 -3
BITMAP
00
10
10
7C
10
10
10
10
10
0F
00
00
00
00
00
00
ENDCHAR

STARTCHAR C230
ENCODING 230
SWIDTH 714 0
DWIDTH 8 0
BBX 8 16 0 -3
BITMAP
00
1D
22
45
41
49
41
51
22
5C
00
00
00
00
00
00
ENDCHAR

STARTCHAR C231
ENCODING 231
SWIDTH 714 0
DWIDTH 8 0
BBX 8 16 0 -3
BITMAP
00
1F
24
44
44
47
44
44
24
1F
00
00
00
00
00
00
ENDCHAR

STARTCHAR C232
ENCODING 232
SWIDTH 714 0
DWIDTH 8 0
BBX 8 16 0 -3
BITMAP
40
7E
41
41
41
7E
40
40
40
40
00
00
00
00
00
00
ENDCHAR

STARTCHAR C233
ENCODING 233
SWIDTH 714 0
DWIDTH 8 0
BBX 8 16 0 -3
BITMAP
41
08
14
22
41
41
7F
41
41
41
00
00
00
00
00
00
ENDCHAR

STARTCHAR C234
ENCODING 234
SWIDTH 714 0
DWIDTH 8 0
BBX 8 16 0 -3
BITMAP
41
1C
22
41
41
41
41
41
22
1C
00
00
00
00
00
00
ENDCHAR

STARTCHAR C235
ENCODING 235
SWIDTH 714 0
DWIDTH 8 0
BBX 8 16 0 -3
BITMAP
41
00
41
41
41
41
41
41
41
3E
00
00
00
00
00
00
ENDCHAR

STARTCHAR C236
ENCODING 236
SWIDTH 714 0
DWIDTH 8 0
BBX 8 16 0 -3
BITMAP
00
3E
41
40
3E
41
3E
01
41
3E
00
00
00
00
00
00
ENDCHAR

STARTCHAR C237
ENCODING 237
SWIDTH 714 0
DWIDTH 8 0
BBX 8 16 0 -3
BITMAP
00
08
3E
49
48
3E
09
49
3E
08
00
00
00
00
00
00
ENDCHAR

STARTCHAR C238
ENCODING 238
SWIDTH 714 0
DWIDTH 8 0
BBX 8 16 0 -3
BITMAP
00
07
08
08
1C
08
08
2C
4A
21
00
00
00
00
00
00
ENDCHAR

STARTCHAR C239
ENCODING 239
SWIDTH 714 0
DWIDTH 8 0
BBX 8 16 0 -3
BITMAP
00
1C
22
5D
55
5D
59
55
22
1C
00
00
00
00
00
00
ENDCHAR

STARTCHAR C240
ENCODING 240
SWIDTH 714 0
DWIDTH 8 0
BBX 8 16 0 -3
BITMAP
00
1C
22
5D
51
51
51
5D
22
1C
00
00
00
00
00
00
ENDCHAR

STARTCHAR C241
ENCODING 241
SWIDTH 714 0
DWIDTH 8 0
BBX 8 16 0 -3
BITMAP
00
1C
22
41
41
41
41
22
14
77
00
00
00
00
00
00
ENDCHAR

STARTCHAR C242
ENCODING 242
SWIDTH 714 0
DWIDTH 8 0
BBX 8 16 0 -3
BITMAP
00
00
00
41
41
41
41
41
43
3D
40
40
40
00
00
00
ENDCHAR

STARTCHAR C243
ENCODING 243
SWIDTH 714 0
DWIDTH 8 0
BBX 8 16 0 -3
BITMAP
00
1C
22
1C
00
00
00
00
00
00
00
00
00
00
00
00
ENDCHAR

STARTCHAR C244
ENCODING 244
SWIDTH 714 0
DWIDTH 8 0
BBX 8 16 0 -3
BITMAP
00
1E
21
40
40
40
40
40
21
1E
04
22
1C
00
00
00
ENDCHAR

STARTCHAR C245
ENCODING 245
SWIDTH 714 0
DWIDTH 8 0
BBX 8 16 0 -3
BITMAP
00
70
48
48
70
44
4F
44
44
43
00
00
00
00
00
00
ENDCHAR

STARTCHAR C246
ENCODING 246
SWIDTH 714 0
DWIDTH 8 0
BBX 8 16 0 -3
BITMAP
00
00
3F
54
14
14
14
14
14
14
00
00
00
00
00
00
ENDCHAR

STARTCHAR C247
ENCODING 247
SWIDTH 714 0
DWIDTH 8 0
BBX 8 16 0 -3
BITMAP
22
1C
00
00
00
00
00
00
00
00
00
00
00
00
00
00
ENDCHAR

STARTCHAR C248
ENCODING 248
SWIDTH 714 0
DWIDTH 8 0
BBX 8 16 0 -3
BITMAP
08
10
00
00
00
00
00
00
00
00
00
00
00
00
00
00
ENDCHAR

STARTCHAR C249
ENCODING 249
SWIDTH 714 0
DWIDTH 8 0
BBX 8 16 0 -3
BITMAP
41
41
00
00
00
00
00
00
00
00
00
00
00
00
00
00
ENDCHAR

STARTCHAR C250
ENCODING 250
SWIDTH 714 0
DWIDTH 8 0
BBX 8 16 0 -3
BITMAP
32
4C
00
41
61
51
49
45
43
41
00
00
00
00
00
00
ENDCHAR

STARTCHAR C251
ENCODING 251
SWIDTH 714 0
DWIDTH 8 0
BBX 8 16 0 -3
BITMAP
00
00
00
00
00
00
40
40
40
78
00
00
00
00
00
00
ENDCHAR

STARTCHAR C252
ENCODING 252
SWIDTH 714 0
DWIDTH 8 0
BBX 8 16 0 -3
BITMAP
00
00
00
00
00
00
08
08
08
78
00
00
00
00
00
00
ENDCHAR

STARTCHAR C253
ENCODING 253
SWIDTH 714 0
DWIDTH 8 0
BBX 8 16 0 -3
BITMAP
32
4C
00
00
00
00
00
00
00
00
00
00
00
00
00
00
ENDCHAR

STARTCHAR C254
ENCODING 254
SWIDTH 714 0
DWIDTH 8 0
BBX 8 16 0 -3
BITMAP
22
14
08
00
00
00
00
00
00
00
00
00
00
00
00
00
ENDCHAR

STARTCHAR C255
ENCODING 255
SWIDTH 714 0
DWIDTH 8 0
BBX 8 16 0 -3
BITMAP
00
0E
11
7C
10
10
10
10
10
70
00
00
00
00
00
00
ENDCHAR
ENDFONT
